<?xml version="1.0"?>
<svg xmlns="http://www.w3.org/2000/svg" viewBox="0 0 50 50">
    <path d="M 25 2 C 14.7 2 8 7.9 8 17 L 8 19.142578 C 7.6871697 19.058942 7.3595858 19 7 19 C 6.6 19 5.8007813 19.100781 5.3007812 20.300781 C 5.1007812 20.800781 5 21.600391 5 22.400391 C 5 26.500391 7.2992188 33.900391 11.199219 34.900391 C 13.199219 44.400391 22.7 47.699219 25 47.699219 C 27.3 47.699219 36.900781 44.300391 38.800781 34.900391 C 42.700781 33.900391 45 26.600391 45 22.400391 C 45 19.400391 43.8 19 43 19 C 42.640773 19 42.313237 19.0591 42 19.142578 L 42 17 C 42 7.9 35.3 2 25 2 z M 24.900391 4 C 32.200391 4 39.900391 7.4 39.900391 17 L 39.900391 20.375 C 39.511601 20.731465 39.150168 21.118851 38.800781 21.5 C 38.300781 17.2 36.5 12 32 12 C 30.3 12 27.2 12.7 25 17 L 24.900391 16.800781 L 24.800781 17 C 22.600781 12.7 19.600781 12 17.800781 12 C 13.333603 12 11.530878 17.122949 11.015625 21.404297 C 10.673398 20.99662 10.310893 20.582609 9.9003906 20.214844 L 9.9003906 17 C 9.9003906 7.4 17.600391 4 24.900391 4 z M 17.900391 14 C 19.800391 14 22.3 15 24 20 L 25 22.699219 L 25.900391 20 C 27.600391 15 30.1 14 32 14 C 36 14 37 20.5 37 24 L 37 26.900391 L 38.800781 24.599609 C 40.100781 22.899609 40.4 22.699219 41.5 21.699219 L 42 21.300781 L 42 21.224609 C 42.227959 21.109513 42.458903 21.026702 42.699219 21 C 43.199219 21.9 42.799219 25.999609 41.199219 29.599609 C 40.199219 31.799609 39.000391 33 37.900391 33 C 37.400391 33 37.000391 33.400781 36.900391 33.800781 C 35.500391 42.400781 26.600391 45.699219 24.900391 45.699219 C 23.200391 45.699219 14.300391 42.500781 12.900391 33.800781 C 12.800391 33.300781 12.400391 33 11.900391 33 C 10.800391 33 9.5996094 31.699609 8.5996094 29.599609 C 6.9996094 25.999609 6.6992187 21.9 7.1992188 21 C 7.47521 21.030666 7.7399327 21.144045 8 21.289062 L 8 21.300781 L 8.4003906 21.800781 C 9.5003906 22.800781 9.7996094 22.999219 11.099609 24.699219 L 12.900391 26.900391 L 12.900391 24 C 12.900391 20.5 14.000391 14 17.900391 14 z M 15 26 C 15 27.8 18.100781 31 19.800781 31 C 21.500781 31 23 29.700781 23 27.800781 L 15 26 z M 35 26 L 27 27.800781 C 27 29.600781 28.399219 31 30.199219 31 C 31.999219 31 35 27.8 35 26 z M 18 36 C 18 36 19.238869 37.080654 21 37.945312 L 21 41 C 21 41 22.022456 39.974049 22.742188 38.625 C 23.466741 38.843216 24.224979 39 25 39 C 25.776305 39 26.536102 38.84384 27.261719 38.625 C 27.931891 40.008507 29 41 29 41 L 29 37.945312 C 30.761131 37.080654 32 36 32 36 C 32 36 28.6 37 25 37 C 21.4 37 18 36 18 36 z"/>
</svg>
